<svg width="135" height="124" viewBox="0 0 135 124" fill="none" xmlns="http://www.w3.org/2000/svg">
<mask id="mask0" mask-type="alpha" maskUnits="userSpaceOnUse" x="0" y="0" width="135" height="124">
<rect width="134.819" height="123.197" fill="#C4C4C4"/>
</mask>
<g mask="url(#mask0)">
<path d="M11.6495 72.666C11.6495 86.0746 16.976 98.934 26.4573 108.415C35.9386 117.897 48.798 123.223 62.2066 123.223C75.6152 123.223 88.4745 117.897 97.9558 108.415C107.437 98.934 112.764 86.0746 112.764 72.666C112.764 59.2574 107.437 46.398 97.9558 36.9167C88.4745 27.4354 75.6152 22.1089 62.2066 22.1089C48.798 22.1089 35.9386 27.4354 26.4573 36.9167C16.976 46.398 11.6495 59.2574 11.6495 72.666Z" fill="#E6F0FF"/>
<path d="M45.865 105.319C45.865 105.838 47.5502 106.336 50.5498 106.703C53.5494 107.07 57.6177 107.276 61.8598 107.276C66.1019 107.276 70.1702 107.07 73.1698 106.703C76.1694 106.336 77.8546 105.838 77.8546 105.319C77.8546 104.8 76.1694 104.302 73.1698 103.935C70.1702 103.568 66.1019 103.361 61.8598 103.361C57.6177 103.361 53.5494 103.568 50.5498 103.935C47.5502 104.302 45.865 104.8 45.865 105.319Z" fill="#0AE8F0"/>
<path d="M97.6099 44.6134C97.6099 43.1477 97.0276 41.742 95.9912 40.7056C94.9548 39.6692 93.5491 39.0869 92.0833 39.0869H32.9129C31.4454 39.0878 30.0382 39.6713 29.0007 40.7092C27.9632 41.7471 27.3802 43.1545 27.3799 44.6221V83.7801H97.6099V44.6134Z" fill="white"/>
<path d="M71.0053 100.806H53.9794L55.044 92.293H69.9417L71.0053 100.806Z" fill="#0AE8F0" stroke="black" stroke-linecap="round" stroke-linejoin="round"/>
<path d="M74.6829 105.068H50.3016C50.0822 105.07 49.8657 105.018 49.6716 104.916C49.4776 104.813 49.3122 104.664 49.1904 104.482C49.0687 104.299 48.9944 104.089 48.9744 103.871C48.9544 103.652 48.9893 103.432 49.0759 103.23C49.4231 102.507 49.9677 101.896 50.647 101.469C51.3263 101.041 52.1126 100.815 52.9152 100.815H72.0694C72.8712 100.814 73.657 101.039 74.3363 101.465C75.0157 101.891 75.5611 102.5 75.9097 103.222C75.9982 103.424 76.0346 103.645 76.0155 103.865C75.9963 104.085 75.9223 104.296 75.8002 104.48C75.6781 104.663 75.5118 104.814 75.3166 104.916C75.1214 105.019 74.9035 105.071 74.6829 105.068Z" fill="#0AE8F0" stroke="black" stroke-linecap="round" stroke-linejoin="round"/>
<path d="M91.8996 92.2928C93.4137 92.2928 94.8658 91.6914 95.9366 90.621C97.0074 89.5506 97.6093 88.0987 97.6099 86.5847V83.7798H27.3799V86.5847C27.3799 87.3346 27.5277 88.0773 27.8147 88.7701C28.1017 89.463 28.5225 90.0925 29.0528 90.6228C29.5832 91.1531 30.2128 91.5737 30.9057 91.8606C31.5987 92.1475 32.3413 92.2951 33.0913 92.2949L91.8996 92.2928Z" fill="#0AE8F0" stroke="black" stroke-linecap="round" stroke-linejoin="round"/>
<path d="M97.6099 44.6134C97.6099 43.1477 97.0276 41.742 95.9912 40.7056C94.9548 39.6692 93.5491 39.0869 92.0833 39.0869H32.9129C31.4454 39.0878 30.0382 39.6713 29.0007 40.7092C27.9632 41.7471 27.3802 43.1545 27.3799 44.6221V83.7801H97.6099V44.6134Z" stroke="black" stroke-linecap="round" stroke-linejoin="round"/>
<path d="M67.8968 67.2896C67.1078 67.9905 66.1237 68.8631 64.3321 68.8631H63.2645C61.9695 68.8631 60.7952 68.3943 59.9504 67.5402C59.1288 66.7094 58.6739 65.5675 58.6739 64.3282V62.8661C58.6739 61.6268 59.1288 60.4896 59.9504 59.6541C60.7905 58.8001 61.9695 58.3313 63.2645 58.3313H64.3321C66.1237 58.3313 67.1078 59.2039 67.8968 59.9048C68.7184 60.6289 69.4239 61.2601 71.3084 61.2601C71.6008 61.2601 71.8886 61.2369 72.1671 61.1905C72.1671 61.1859 72.1625 61.1812 72.1625 61.1719C72.0511 60.8934 71.9165 60.6196 71.7679 60.355L70.5054 58.1734C69.3497 56.1683 67.2099 54.9336 64.8983 54.9336H62.378C60.0664 54.9336 57.9266 56.1683 56.7709 58.1734L55.5084 60.355C54.3526 62.3602 54.3526 64.8249 55.5084 66.8301L56.7709 69.0116C57.9266 71.0168 60.0664 72.2515 62.378 72.2515H64.8983C67.2099 72.2515 69.3497 71.0168 70.5054 69.0116L71.7679 66.8301C71.9211 66.5655 72.0511 66.2916 72.1625 66.0178C72.1625 66.0131 72.1671 66.0085 72.1671 65.9992C71.8886 65.9528 71.6008 65.9296 71.3084 65.9296C69.4239 65.9342 68.7184 66.5608 67.8968 67.2896Z" fill="#006BFF"/>
<path d="M64.3343 59.6584H63.2667C61.2987 59.6584 60.0037 61.0649 60.0037 62.8658V64.3279C60.0037 66.1289 61.2987 67.5353 63.2667 67.5353H64.3343C67.2028 67.5353 66.98 64.6111 71.3106 64.6111C71.7238 64.6111 72.1368 64.6482 72.536 64.7224C72.666 63.9798 72.666 63.2186 72.536 62.4713C72.1368 62.5455 71.7284 62.5827 71.3106 62.5827C66.9754 62.5827 67.2028 59.6584 64.3343 59.6584Z" fill="#006BFF"/>
<path d="M75.0178 65.7905C74.2798 65.2428 73.4304 64.8901 72.5299 64.723C72.5299 64.7322 72.5253 64.7369 72.5253 64.7462C72.4464 65.1732 72.3257 65.5956 72.1632 66.0087C72.9244 66.1294 73.6207 66.4171 74.2195 66.8535C74.2195 66.8581 74.2148 66.8674 74.2148 66.872C73.8713 67.9907 73.3515 69.0489 72.6691 70.0098C71.9961 70.9566 71.1838 71.7921 70.2555 72.493C68.3246 73.9412 66.0224 74.7071 63.5994 74.7071C62.1002 74.7071 60.6427 74.4147 59.2781 73.8344C57.9552 73.2728 56.767 72.4745 55.7458 71.4533C54.7247 70.4321 53.9263 69.2439 53.3647 67.921C52.7845 66.5518 52.492 65.0989 52.492 63.5997C52.492 62.1004 52.7845 60.643 53.3647 59.2783C53.9263 57.9555 54.7247 56.7672 55.7458 55.7461C56.767 54.7249 57.9552 53.9266 59.2781 53.3649C60.6474 52.7847 62.1002 52.4923 63.5994 52.4923C66.0224 52.4923 68.3246 53.2582 70.2555 54.7063C71.1838 55.4026 72.0008 56.2381 72.6691 57.1896C73.3515 58.1504 73.8713 59.2041 74.2148 60.3273C74.2148 60.3366 74.2195 60.3413 74.2195 60.3459C73.6207 60.7822 72.9198 61.07 72.1632 61.1907C72.3257 61.5991 72.4464 62.0215 72.5253 62.4532C72.5253 62.4578 72.5253 62.4671 72.5299 62.4718C73.4304 62.3047 74.2798 61.9473 75.0178 61.4042C75.728 60.8797 75.5887 60.2856 75.482 59.9328C73.9177 54.8549 69.1879 51.1648 63.5994 51.1648C56.7345 51.1648 51.1646 56.7301 51.1646 63.5997C51.1646 70.4693 56.7298 76.0346 63.5994 76.0346C69.1926 76.0346 73.9224 72.3445 75.482 67.2666C75.5934 66.9092 75.728 66.315 75.0178 65.7905Z" fill="#006BFF"/>
<path d="M72.1697 61.1905C71.8912 61.2369 71.6034 61.2602 71.311 61.2602C69.4265 61.2602 68.7163 60.6335 67.8994 59.9048C67.1103 59.2039 66.1263 58.3313 64.3347 58.3313H63.2671C61.9721 58.3313 60.7977 58.8001 59.953 59.6542C59.1314 60.485 58.6765 61.6268 58.6765 62.8662V64.3283C58.6765 65.5676 59.1314 66.7048 59.953 67.5403C60.7931 68.3943 61.9721 68.8631 63.2671 68.8631H64.3347C66.1263 68.8631 67.1103 67.9905 67.8994 67.2896C68.721 66.5655 69.4265 65.9343 71.311 65.9343C71.6034 65.9343 71.8912 65.9575 72.1697 66.0039C72.3322 65.5954 72.4528 65.173 72.5317 64.7414C72.5317 64.7321 72.5364 64.7274 72.5364 64.7182C72.1372 64.6439 71.7288 64.6068 71.311 64.6068C66.9804 64.6068 67.2032 67.531 64.3347 67.531H63.2671C61.299 67.531 60.004 66.1246 60.004 64.3236V62.8662C60.004 61.0652 61.299 59.6588 63.2671 59.6588H64.3347C67.2032 59.6588 66.9804 62.583 71.311 62.583C71.7241 62.583 72.1372 62.5459 72.5364 62.4716C72.5364 62.467 72.5364 62.4577 72.5317 62.4531C72.4528 62.0214 72.3322 61.599 72.1697 61.1905Z" fill="#0AE9EF"/>
<path d="M72.1697 61.1905C71.8912 61.2369 71.6034 61.2602 71.311 61.2602C69.4265 61.2602 68.7163 60.6335 67.8994 59.9048C67.1103 59.2039 66.1263 58.3313 64.3347 58.3313H63.2671C61.9721 58.3313 60.7977 58.8001 59.953 59.6542C59.1314 60.485 58.6765 61.6268 58.6765 62.8662V64.3283C58.6765 65.5676 59.1314 66.7048 59.953 67.5403C60.7931 68.3943 61.9721 68.8631 63.2671 68.8631H64.3347C66.1263 68.8631 67.1103 67.9905 67.8994 67.2896C68.721 66.5655 69.4265 65.9343 71.311 65.9343C71.6034 65.9343 71.8912 65.9575 72.1697 66.0039C72.3322 65.5954 72.4528 65.173 72.5317 64.7414C72.5317 64.7321 72.5364 64.7274 72.5364 64.7182C72.1372 64.6439 71.7288 64.6068 71.311 64.6068C66.9804 64.6068 67.2032 67.531 64.3347 67.531H63.2671C61.299 67.531 60.004 66.1246 60.004 64.3236V62.8662C60.004 61.0652 61.299 59.6588 63.2671 59.6588H64.3347C67.2032 59.6588 66.9804 62.583 71.311 62.583C71.7241 62.583 72.1372 62.5459 72.5364 62.4716C72.5364 62.467 72.5364 62.4577 72.5317 62.4531C72.4528 62.0214 72.3322 61.599 72.1697 61.1905Z" fill="#0AE9EF"/>
<path d="M23.1168 29.0973C26.3294 29.2524 29.4123 30.4118 31.9309 32.4121C34.4496 34.4124 36.277 37.1528 37.1554 40.2468C38.0339 43.3409 37.9192 46.6326 36.8275 49.658C35.7358 52.6834 33.7221 55.2899 31.0703 57.11C31.5748 59.3553 32.7379 61.3988 34.4107 62.9791C34.487 63.0522 34.539 63.1471 34.5596 63.2507C34.5802 63.3544 34.5684 63.4619 34.5258 63.5587C34.4832 63.6554 34.4119 63.7367 34.3215 63.7916C34.2312 63.8464 34.1261 63.8721 34.0206 63.8652C28.9622 63.5665 25.9893 61.8946 23.9961 59.7278C21.89 59.9525 19.7602 59.7393 17.7404 59.1017C15.7206 58.4641 13.8544 57.4159 12.259 56.0227C10.6636 54.6296 9.37344 52.9216 8.46954 51.0061C7.56563 49.0906 7.06749 47.0089 7.00639 44.8918C6.9453 42.7746 7.32256 40.6676 8.11449 38.7032C8.90643 36.7388 10.0959 34.9593 11.6083 33.4764C13.1207 31.9936 14.9234 30.8394 16.903 30.0864C18.8827 29.3334 20.9967 28.9978 23.1123 29.1007L23.1168 29.0973Z" fill="white" stroke="black" stroke-linecap="round" stroke-linejoin="round"/>
<path d="M13.9747 44.1915C13.9747 46.3492 14.8318 48.4186 16.3576 49.9443C17.8833 51.47 19.9526 52.3272 22.1103 52.3272C24.268 52.3272 26.3373 51.47 27.8631 49.9443C29.3888 48.4186 30.2459 46.3492 30.2459 44.1915C30.2459 42.0338 29.3888 39.9645 27.8631 38.4388C26.3373 36.9131 24.268 36.0559 22.1103 36.0559C19.9526 36.0559 17.8833 36.9131 16.3576 38.4388C14.8318 39.9645 13.9747 42.0338 13.9747 44.1915Z" fill="white" stroke="black" stroke-linecap="round" stroke-linejoin="round"/>
<path d="M23.072 42.6663C23.072 42.909 23.1684 43.1418 23.34 43.3134C23.5116 43.485 23.7444 43.5814 23.9871 43.5814C24.2298 43.5814 24.4626 43.485 24.6342 43.3134C24.8058 43.1418 24.9022 42.909 24.9022 42.6663C24.9022 42.4236 24.8058 42.1909 24.6342 42.0193C24.4626 41.8476 24.2298 41.7512 23.9871 41.7512C23.7444 41.7512 23.5116 41.8476 23.34 42.0193C23.1684 42.1909 23.072 42.4236 23.072 42.6663Z" fill="black"/>
<path d="M16.877 42.6663C16.877 42.909 16.9734 43.1418 17.145 43.3134C17.3166 43.485 17.5494 43.5814 17.7921 43.5814C18.0348 43.5814 18.2676 43.485 18.4392 43.3134C18.6108 43.1418 18.7072 42.909 18.7072 42.6663C18.7072 42.4236 18.6108 42.1909 18.4392 42.0193C18.2676 41.8476 18.0348 41.7512 17.7921 41.7512C17.5494 41.7512 17.3166 41.8476 17.145 42.0193C16.9734 42.1909 16.877 42.4236 16.877 42.6663Z" fill="black"/>
<path d="M23.7548 46.1564C23.7598 46.5357 23.6894 46.9122 23.5477 47.2641C23.4061 47.616 23.1959 47.9362 22.9294 48.2062C22.663 48.4762 22.3456 48.6906 21.9956 48.8369C21.6456 48.9832 21.2701 49.0586 20.8907 49.0586C20.5114 49.0586 20.1358 48.9832 19.7858 48.8369C19.4359 48.6906 19.1184 48.4762 18.852 48.2062C18.5855 47.9362 18.3754 47.616 18.2337 47.2641C18.092 46.9122 18.0216 46.5357 18.0267 46.1564H23.7548Z" fill="#0AE8F0" stroke="black" stroke-linecap="round" stroke-linejoin="round"/>
<path d="M107.521 19.8092C103.055 20.0241 98.7698 21.6351 95.2688 24.4151C91.7677 27.1951 89.2275 31.004 88.0064 35.3045C86.7853 39.6051 86.9448 44.1805 88.4625 48.3856C89.9802 52.5907 92.7795 56.2133 96.4656 58.7428C95.7616 61.8628 94.1428 64.702 91.8164 66.897C91.7109 66.999 91.6393 67.1308 91.6111 67.2748C91.5829 67.4187 91.5996 67.5678 91.6588 67.702C91.718 67.8362 91.817 67.949 91.9423 68.0252C92.0677 68.1014 92.2134 68.1373 92.3598 68.1281C99.39 67.7132 103.521 65.3886 106.293 62.3785C107.042 62.4583 107.794 62.4989 108.548 62.5003C111.398 62.503 114.219 61.9353 116.846 60.8307C119.473 59.7261 121.853 58.1069 123.845 56.0685C125.836 54.03 127.4 51.6136 128.443 48.9616C129.486 46.3095 129.989 43.4755 129.92 40.6264C129.851 37.7774 129.213 34.9709 128.042 32.3723C126.872 29.7738 125.194 27.4357 123.106 25.4958C121.018 23.556 118.563 22.0536 115.886 21.0771C113.208 20.1007 110.363 19.67 107.516 19.8103L107.521 19.8092Z" fill="white" stroke="black" stroke-linecap="round" stroke-linejoin="round"/>
<path d="M97.5035 37.4388H104.686V48.5727H97.5035V37.4388Z" fill="#0AE8F0" stroke="black" stroke-linecap="round" stroke-linejoin="round"/>
<path d="M115.568 37.0792C115.231 37.0793 114.907 36.9471 114.666 36.711C114.425 36.4749 114.286 36.1538 114.279 35.8166C114.224 32.917 113.265 28.6398 111.333 28.6398C109.701 28.6398 109.33 29.5056 109.33 30.7942C109.33 34.7399 108.003 38.8751 104.689 38.8751V47.1365H105.113C107.185 47.1365 108.164 48.5727 111.877 48.5727H116.917C117.706 48.5727 118.126 47.8963 118.354 47.1365C118.629 46.2143 121.755 39.3092 121.755 38.5166C121.755 38.1354 121.603 37.7698 121.334 37.5002C121.064 37.2307 120.699 37.0792 120.317 37.0792H115.568Z" fill="white" stroke="black" stroke-linecap="round" stroke-linejoin="round"/>
<path d="M58.9678 7.01935C62.3773 7.18319 65.6494 8.41308 68.3227 10.5356C70.9959 12.6581 72.9356 15.5662 73.868 18.8498C74.8005 22.1334 74.6788 25.6269 73.5201 28.8376C72.3613 32.0483 70.224 34.8144 67.4095 36.7457C67.9465 39.1278 69.1823 41.2954 70.9585 42.971C71.0394 43.0486 71.0945 43.1492 71.1163 43.2592C71.1381 43.3692 71.1256 43.4832 71.0804 43.5858C71.0353 43.6885 70.9597 43.7747 70.8638 43.8329C70.768 43.8911 70.6566 43.9185 70.5447 43.9112C65.1762 43.5945 62.0219 41.82 59.9058 39.5202C57.6707 39.7589 55.4103 39.533 53.2667 38.8566C51.123 38.1801 49.1424 37.0678 47.4491 35.5894C45.7558 34.111 44.3865 32.2984 43.4272 30.2656C42.4678 28.2328 41.9391 26.0235 41.8742 23.7766C41.8094 21.5297 42.2098 19.2936 43.0503 17.2089C43.8909 15.1241 45.1534 13.2356 46.7586 11.662C48.3637 10.0884 50.2769 8.86367 52.378 8.06473C54.4791 7.26578 56.7226 6.90987 58.9678 7.01935Z" fill="white" stroke="black" stroke-linecap="round" stroke-linejoin="round"/>
<path d="M48.2483 22.2975C48.2483 24.8513 49.2627 27.3004 51.0685 29.1061C52.8742 30.9119 55.3234 31.9264 57.8771 31.9264C60.4308 31.9264 62.8799 30.9119 64.6857 29.1061C66.4914 27.3004 67.5059 24.8513 67.5059 22.2975C67.5059 19.7438 66.4914 17.2947 64.6857 15.4889C62.8799 13.6832 60.4308 12.6687 57.8771 12.6687C55.3234 12.6687 52.8742 13.6832 51.0685 15.4889C49.2627 17.2947 48.2483 19.7438 48.2483 22.2975Z" fill="#0AE8F0" stroke="black" stroke-linecap="round" stroke-linejoin="round"/>
<path d="M48.2483 22.2975C48.2483 24.8513 49.2627 27.3004 51.0685 29.1061C52.8742 30.9119 55.3234 31.9264 57.8771 31.9264C60.4308 31.9264 62.8799 30.9119 64.6857 29.1061C66.4914 27.3004 67.5059 24.8513 67.5059 22.2975C67.5059 19.7438 66.4914 17.2947 64.6857 15.4889C62.8799 13.6832 60.4308 12.6687 57.8771 12.6687C55.3234 12.6687 52.8742 13.6832 51.0685 15.4889C49.2627 17.2947 48.2483 19.7438 48.2483 22.2975Z" fill="#0AE8F0" stroke="black" stroke-linecap="round" stroke-linejoin="round"/>
<path d="M57.4676 28.5406C57.5203 28.5962 57.5838 28.6405 57.6541 28.6707C57.7245 28.701 57.8003 28.7166 57.8769 28.7166C57.9534 28.7166 58.0292 28.701 58.0996 28.6707C58.17 28.6405 58.2334 28.5962 58.2861 28.5406L63.1867 23.4257C63.6532 22.9595 63.9611 22.3584 64.067 21.7075C64.1728 21.0566 64.0711 20.3889 63.7764 19.799C63.5535 19.3538 63.2281 18.9679 62.827 18.6731C62.4258 18.3783 61.9603 18.183 61.4689 18.1033C60.9775 18.0236 60.4742 18.0618 60.0004 18.2147C59.5266 18.3676 59.0959 18.6308 58.7438 18.9828L57.8769 19.8497L57.0099 18.9828C56.6579 18.6308 56.2273 18.3676 55.7536 18.2147C55.2799 18.0618 54.7767 18.0236 54.2853 18.1033C53.794 18.183 53.3286 18.3783 52.9275 18.6731C52.5265 18.9679 52.2012 19.3538 51.9785 19.799C51.6834 20.3887 51.5815 21.0564 51.6871 21.7074C51.7927 22.3583 52.1006 22.9595 52.567 23.4257L57.4676 28.5406Z" fill="#0AE8F0" stroke="black" stroke-linecap="round" stroke-linejoin="round"/>
<path d="M57.4676 28.5406C57.5203 28.5962 57.5838 28.6405 57.6541 28.6707C57.7245 28.701 57.8003 28.7166 57.8769 28.7166C57.9534 28.7166 58.0292 28.701 58.0996 28.6707C58.17 28.6405 58.2334 28.5962 58.2861 28.5406L63.1867 23.4257C63.6532 22.9595 63.9611 22.3584 64.067 21.7075C64.1728 21.0566 64.0711 20.3889 63.7764 19.799C63.5535 19.3538 63.2281 18.9679 62.827 18.6731C62.4258 18.3783 61.9603 18.183 61.4689 18.1033C60.9775 18.0236 60.4742 18.0618 60.0004 18.2147C59.5266 18.3676 59.0959 18.6308 58.7438 18.9828L57.8769 19.8497L57.0099 18.9828C56.6579 18.6308 56.2273 18.3676 55.7536 18.2147C55.2799 18.0618 54.7767 18.0236 54.2853 18.1033C53.794 18.183 53.3286 18.3783 52.9275 18.6731C52.5265 18.9679 52.2012 19.3538 51.9785 19.799C51.6834 20.3887 51.5815 21.0564 51.6871 21.7074C51.7927 22.3583 52.1006 22.9595 52.567 23.4257L57.4676 28.5406Z" fill="white" stroke="black" stroke-linecap="round" stroke-linejoin="round"/>
</g>
</svg>
