<svg width="135" height="124" viewBox="0 0 135 124" fill="none" xmlns="http://www.w3.org/2000/svg">
<mask id="mask0" mask-type="alpha" maskUnits="userSpaceOnUse" x="0" y="0" width="135" height="124">
<rect width="134.819" height="123.197" fill="#C4C4C4"/>
</mask>
<g mask="url(#mask0)">
<path d="M16 68.1794C16 81.588 21.3265 94.4474 30.8078 103.929C40.2891 113.41 53.1485 118.737 66.5571 118.737C79.9657 118.737 92.8251 113.41 102.306 103.929C111.788 94.4474 117.114 81.588 117.114 68.1794C117.114 54.7708 111.788 41.9114 102.306 32.4301C92.8251 22.9489 79.9657 17.6223 66.5571 17.6223C53.1485 17.6223 40.2891 22.9489 30.8078 32.4301C21.3265 41.9114 16 54.7708 16 68.1794Z" fill="#E6F0FF"/>
<path d="M43.7544 106.717C43.7544 107.545 46.383 108.339 51.062 108.924C55.7409 109.509 62.0869 109.838 68.704 109.838C75.321 109.838 81.6671 109.509 86.346 108.924C91.025 108.339 93.6536 107.545 93.6536 106.717C93.6536 105.889 91.025 105.096 86.346 104.51C81.6671 103.925 75.321 103.596 68.704 103.596C62.0869 103.596 55.7409 103.925 51.062 104.51C46.383 105.096 43.7544 105.889 43.7544 106.717Z" fill="#0AE8F0"/>
<path d="M42.1645 50.865H93.7651V104.53H42.1645V50.865Z" fill="white" stroke="black" stroke-linejoin="round"/>
<path d="M48.3558 57.0571H87.5719V92.1451H48.3558V57.0571Z" fill="#0AE8F0"/>
<path d="M48.3558 57.0571H87.5719V92.1451H48.3558V57.0571Z" stroke="black" stroke-linejoin="round"/>
<path d="M68.9841 6.80036L71.5821 12.0583C71.6846 12.267 71.8364 12.4476 72.0243 12.5845C72.2122 12.7214 72.4306 12.8106 72.6606 12.8443L78.47 13.6883C78.7352 13.7268 78.9844 13.8387 79.1893 14.0115C79.3942 14.1842 79.5466 14.4109 79.6294 14.6658C79.7122 14.9207 79.7219 15.1936 79.6576 15.4538C79.5933 15.714 79.4574 15.951 79.2654 16.1379L75.0645 20.2405C74.8979 20.4032 74.7734 20.6039 74.7016 20.8253C74.6297 21.0467 74.6127 21.2823 74.6519 21.5118L75.6442 27.2982C75.6892 27.5622 75.6595 27.8334 75.5585 28.0814C75.4575 28.3294 75.2892 28.5442 75.0725 28.7015C74.8559 28.8588 74.5995 28.9525 74.3325 28.9718C74.0654 28.9911 73.7983 28.9354 73.5612 28.8109L68.3653 26.0795C68.159 25.9712 67.9296 25.9146 67.6966 25.9146C67.4636 25.9146 67.2342 25.9712 67.0279 26.0795L61.832 28.8109C61.5949 28.9354 61.3278 28.9911 61.0607 28.9718C60.7937 28.9525 60.5373 28.8588 60.3207 28.7015C60.104 28.5442 59.9357 28.3294 59.8347 28.0814C59.7337 27.8334 59.704 27.5622 59.749 27.2982L60.7413 21.5118C60.7809 21.2823 60.764 21.0466 60.6921 20.8251C60.6203 20.6036 60.4955 20.403 60.3287 20.2405L56.1251 16.1433C55.9331 15.9563 55.7972 15.7194 55.7329 15.4592C55.6686 15.199 55.6783 14.9261 55.7611 14.6712C55.8439 14.4162 55.9963 14.1896 56.2012 14.0168C56.4061 13.8441 56.6553 13.7321 56.9205 13.6937L62.7299 12.8497C62.9599 12.816 63.1783 12.7268 63.3662 12.5899C63.5541 12.453 63.7059 12.2724 63.8084 12.0637L66.4064 6.80575C66.5242 6.56456 66.7072 6.36121 66.9347 6.21878C67.1623 6.07636 67.4251 6.00056 67.6936 6C67.962 5.99944 68.2252 6.07413 68.4533 6.21561C68.6814 6.35708 68.8653 6.55966 68.9841 6.80036Z" fill="white"/>
<path d="M68.9841 6.80036L71.5821 12.0583C71.6846 12.267 71.8364 12.4476 72.0243 12.5845C72.2122 12.7214 72.4306 12.8106 72.6606 12.8443L78.47 13.6883C78.7352 13.7268 78.9844 13.8387 79.1893 14.0115C79.3942 14.1842 79.5466 14.4109 79.6294 14.6658C79.7122 14.9207 79.7219 15.1936 79.6576 15.4538C79.5933 15.714 79.4574 15.951 79.2654 16.1379L75.0645 20.2405C74.8979 20.4032 74.7734 20.6039 74.7016 20.8253C74.6297 21.0467 74.6127 21.2823 74.6519 21.5118L75.6442 27.2982C75.6892 27.5622 75.6595 27.8334 75.5585 28.0814C75.4575 28.3294 75.2892 28.5442 75.0725 28.7015C74.8559 28.8588 74.5995 28.9525 74.3325 28.9718C74.0654 28.9911 73.7983 28.9354 73.5612 28.8109L68.3653 26.0795C68.159 25.9712 67.9296 25.9146 67.6966 25.9146C67.4636 25.9146 67.2342 25.9712 67.0279 26.0795L61.832 28.8109C61.5949 28.9354 61.3278 28.9911 61.0607 28.9718C60.7937 28.9525 60.5373 28.8588 60.3207 28.7015C60.104 28.5442 59.9357 28.3294 59.8347 28.0814C59.7337 27.8334 59.704 27.5622 59.749 27.2982L60.7413 21.5118C60.7809 21.2823 60.764 21.0466 60.6921 20.8251C60.6203 20.6036 60.4955 20.403 60.3287 20.2405L56.1251 16.1433C55.9331 15.9563 55.7972 15.7194 55.7329 15.4592C55.6686 15.199 55.6783 14.9261 55.7611 14.6712C55.8439 14.4162 55.9963 14.1896 56.2012 14.0168C56.4061 13.8441 56.6553 13.7321 56.9205 13.6937L62.7299 12.8497C62.9599 12.816 63.1783 12.7268 63.3662 12.5899C63.5541 12.453 63.7059 12.2724 63.8084 12.0637L66.4064 6.80575C66.5242 6.56456 66.7072 6.36121 66.9347 6.21878C67.1623 6.07636 67.4251 6.00056 67.6936 6C67.962 5.99944 68.2252 6.07413 68.4533 6.21561C68.6814 6.35708 68.8653 6.55966 68.9841 6.80036V6.80036Z" stroke="black" stroke-linecap="round" stroke-linejoin="round"/>
<path d="M98.038 19.3358L97.7279 24.0949C97.7156 24.2837 97.7493 24.4725 97.8261 24.6454C97.9029 24.8182 98.0205 24.9698 98.1688 25.0872L101.914 28.0397C102.085 28.1747 102.215 28.3548 102.289 28.5596C102.363 28.7645 102.378 28.986 102.333 29.199C102.287 29.4121 102.183 29.6082 102.032 29.7652C101.881 29.9222 101.69 30.0339 101.479 30.0876L96.8597 31.2687C96.676 31.3147 96.5064 31.4049 96.3655 31.5312C96.2245 31.6576 96.1165 31.8165 96.0507 31.994L94.3992 36.47C94.3234 36.674 94.1921 36.8528 94.0201 36.9862C93.8481 37.1196 93.6423 37.2022 93.4258 37.2248C93.2093 37.2473 92.9908 37.209 92.795 37.1139C92.5992 37.0189 92.4339 36.871 92.3176 36.687L89.7709 32.6546C89.6694 32.4946 89.5304 32.3618 89.366 32.2678C89.2015 32.1738 89.0165 32.1215 88.8271 32.1153L84.0613 31.9252C83.8437 31.9171 83.6327 31.8481 83.4523 31.7261C83.272 31.6041 83.1294 31.434 83.0408 31.2351C82.9522 31.0361 82.9212 30.8164 82.9512 30.6007C82.9812 30.385 83.0711 30.182 83.2106 30.0148L86.2589 26.3464C86.3799 26.201 86.4637 26.0282 86.503 25.8431C86.5422 25.658 86.5357 25.4661 86.484 25.284L85.1911 20.6935C85.1297 20.4832 85.1289 20.2599 85.1886 20.0491C85.2483 19.8383 85.3661 19.6487 85.5286 19.5018C85.6911 19.3549 85.8917 19.2567 86.1074 19.2186C86.3231 19.1804 86.5452 19.2038 86.7482 19.286L91.1784 21.0507C91.3538 21.1209 91.5436 21.1474 91.7315 21.1279C91.9194 21.1084 92.0997 21.0435 92.2569 20.9388L96.2233 18.2883C96.4045 18.1669 96.6162 18.0987 96.8342 18.0915C97.0521 18.0842 97.2678 18.1382 97.4567 18.2472C97.6456 18.3563 97.8002 18.516 97.9029 18.7084C98.0057 18.9009 98.0525 19.1182 98.038 19.3358Z" fill="white"/>
<path d="M98.038 19.3358L97.7279 24.0949C97.7156 24.2837 97.7493 24.4725 97.8261 24.6454C97.9029 24.8182 98.0205 24.9698 98.1688 25.0872L101.914 28.0397C102.085 28.1747 102.215 28.3548 102.289 28.5596C102.363 28.7645 102.378 28.986 102.333 29.199C102.287 29.4121 102.183 29.6082 102.032 29.7652C101.881 29.9222 101.69 30.0339 101.479 30.0876L96.8597 31.2687C96.676 31.3147 96.5064 31.4049 96.3655 31.5312C96.2245 31.6576 96.1165 31.8165 96.0507 31.994L94.3992 36.47C94.3234 36.674 94.1921 36.8528 94.0201 36.9862C93.8481 37.1196 93.6423 37.2022 93.4258 37.2248C93.2093 37.2473 92.9908 37.2089 92.795 37.1139C92.5992 37.0189 92.4339 36.8711 92.3176 36.687L89.7709 32.6546C89.6694 32.4946 89.5304 32.3618 89.366 32.2678C89.2015 32.1738 89.0165 32.1215 88.8271 32.1153L84.0613 31.9252C83.8437 31.9171 83.6327 31.8481 83.4523 31.7261C83.272 31.6041 83.1294 31.434 83.0408 31.2351C82.9522 31.0361 82.9212 30.8164 82.9512 30.6007C82.9812 30.385 83.0711 30.182 83.2106 30.0148L86.2589 26.3464C86.3799 26.201 86.4637 26.0282 86.503 25.8431C86.5422 25.658 86.5357 25.4661 86.484 25.284L85.1911 20.6935C85.1297 20.4832 85.1289 20.2599 85.1886 20.0491C85.2483 19.8383 85.3661 19.6487 85.5286 19.5018C85.6911 19.3549 85.8917 19.2567 86.1074 19.2186C86.3231 19.1804 86.5452 19.2038 86.7482 19.286L91.1784 21.0507C91.3538 21.1209 91.5436 21.1474 91.7315 21.1279C91.9194 21.1084 92.0997 21.0435 92.2569 20.9388L96.2233 18.2883C96.4045 18.1669 96.6162 18.0987 96.8342 18.0915C97.0521 18.0842 97.2678 18.1382 97.4567 18.2472C97.6456 18.3563 97.8002 18.516 97.9029 18.7084C98.0057 18.9009 98.0525 19.1182 98.038 19.3358V19.3358Z" stroke="black" stroke-linecap="round" stroke-linejoin="round"/>
<path d="M112.97 43.1072L110.933 46.1595C110.852 46.2803 110.801 46.4191 110.786 46.5639C110.771 46.7086 110.791 46.8549 110.845 46.99L112.204 50.3982C112.266 50.5539 112.283 50.7238 112.253 50.8887C112.224 51.0536 112.149 51.207 112.036 51.3314C111.924 51.4558 111.779 51.5463 111.619 51.5928C111.458 51.6392 111.287 51.6396 111.126 51.5941L107.595 50.5991C107.455 50.5598 107.307 50.5551 107.165 50.5854C107.022 50.6157 106.89 50.6801 106.778 50.773L103.956 53.1189C103.827 53.2255 103.671 53.294 103.505 53.3167C103.339 53.3393 103.171 53.3152 103.018 53.2471C102.865 53.179 102.734 53.0696 102.64 52.9311C102.547 52.7927 102.493 52.6308 102.486 52.4636L102.341 48.7952C102.335 48.6496 102.294 48.5076 102.221 48.3815C102.149 48.2553 102.046 48.1488 101.923 48.0712L98.8219 46.1123C98.6801 46.0232 98.5661 45.8961 98.4929 45.7455C98.4196 45.5949 98.39 45.4267 98.4074 45.2601C98.4248 45.0935 98.4885 44.9352 98.5913 44.8029C98.6942 44.6707 98.8319 44.5699 98.9891 44.512L102.432 43.2407C102.569 43.1902 102.691 43.1074 102.788 42.9994C102.885 42.8913 102.955 42.7613 102.991 42.6205L103.895 39.064C103.937 38.9018 104.023 38.7543 104.143 38.6384C104.264 38.5224 104.415 38.4425 104.579 38.4078C104.742 38.373 104.913 38.3847 105.07 38.4416C105.228 38.4985 105.366 38.5982 105.47 38.7296L107.742 41.6107C107.832 41.7247 107.949 41.8151 108.081 41.8742C108.214 41.9334 108.359 41.9596 108.505 41.9505L112.166 41.7105C112.334 41.6996 112.501 41.7358 112.649 41.8151C112.796 41.8943 112.919 42.0134 113.003 42.1587C113.086 42.3041 113.128 42.4701 113.122 42.6377C113.116 42.8053 113.063 42.968 112.97 43.1072Z" fill="white"/>
<path d="M112.97 43.1072L110.933 46.1595C110.852 46.2803 110.801 46.4191 110.786 46.5639C110.771 46.7086 110.791 46.8549 110.845 46.99L112.204 50.3982C112.266 50.5539 112.283 50.7238 112.253 50.8887C112.224 51.0536 112.149 51.207 112.036 51.3314C111.924 51.4558 111.779 51.5463 111.619 51.5928C111.458 51.6392 111.287 51.6396 111.126 51.5941L107.595 50.5991C107.455 50.5598 107.307 50.5551 107.165 50.5854C107.022 50.6157 106.89 50.6801 106.778 50.773L103.956 53.1189C103.827 53.2255 103.671 53.294 103.505 53.3167C103.339 53.3393 103.171 53.3152 103.018 53.2471C102.865 53.179 102.734 53.0696 102.64 52.9311C102.547 52.7927 102.493 52.6308 102.486 52.4636L102.341 48.7952C102.335 48.6496 102.294 48.5076 102.221 48.3815C102.149 48.2553 102.046 48.1488 101.923 48.0712L98.8219 46.1123C98.6801 46.0232 98.5661 45.8961 98.4929 45.7455C98.4196 45.5949 98.39 45.4267 98.4074 45.2601C98.4248 45.0935 98.4885 44.9352 98.5913 44.8029C98.6942 44.6707 98.8319 44.5699 98.9891 44.512L102.432 43.2407C102.569 43.1902 102.691 43.1074 102.788 42.9994C102.885 42.8913 102.955 42.7613 102.991 42.6205L103.895 39.064C103.937 38.9018 104.023 38.7543 104.143 38.6384C104.264 38.5224 104.415 38.4425 104.579 38.4078C104.742 38.373 104.913 38.3847 105.07 38.4416C105.228 38.4985 105.366 38.5982 105.47 38.7296L107.742 41.6107C107.832 41.7247 107.949 41.8151 108.081 41.8742C108.214 41.9334 108.359 41.9596 108.505 41.9505L112.166 41.7105C112.334 41.6996 112.501 41.7358 112.649 41.8151C112.796 41.8943 112.919 42.0134 113.003 42.1587C113.086 42.3041 113.128 42.4701 113.122 42.6377C113.116 42.8053 113.063 42.968 112.97 43.1072V43.1072Z" stroke="black" stroke-linecap="round" stroke-linejoin="round"/>
<path d="M39.3958 18.2899L43.3621 20.9391C43.5194 21.0438 43.6997 21.1087 43.8876 21.1282C44.0755 21.1477 44.2653 21.1212 44.4407 21.051L48.8668 19.2862C49.0689 19.2056 49.2896 19.1832 49.5038 19.2214C49.718 19.2597 49.9173 19.3571 50.079 19.5027C50.2407 19.6483 50.3585 19.8363 50.419 20.0453C50.4795 20.2544 50.4803 20.4762 50.4213 20.6856L49.1364 25.2762C49.0851 25.4583 49.0787 25.6501 49.118 25.8352C49.1572 26.0202 49.2408 26.193 49.3616 26.3386L52.4112 30.007C52.5502 30.1744 52.6396 30.3773 52.6693 30.5928C52.6991 30.8083 52.6679 31.0278 52.5794 31.2265C52.4909 31.4253 52.3486 31.5953 52.1685 31.7174C51.9885 31.8395 51.7779 31.9087 51.5605 31.9174L46.7946 32.1075C46.6054 32.1141 46.4206 32.1667 46.2562 32.2606C46.0918 32.3546 45.9527 32.4871 45.8509 32.6468L43.3042 36.6792C43.1879 36.8632 43.0226 37.0111 42.8268 37.1061C42.6309 37.2011 42.4125 37.2395 42.196 37.2169C41.9795 37.1944 41.7736 37.1117 41.6016 36.9783C41.4296 36.845 41.2983 36.6662 41.2226 36.4621L39.571 31.9861C39.5055 31.8085 39.3975 31.6496 39.2566 31.5231C39.1156 31.3967 38.9458 31.3067 38.7621 31.2608L34.1405 30.0852C33.9295 30.0316 33.7377 29.92 33.5869 29.763C33.436 29.606 33.3322 29.4099 33.287 29.1969C33.2418 28.984 33.2571 28.7626 33.3313 28.5579C33.4054 28.3532 33.5353 28.1733 33.7064 28.0387L37.4503 25.0848C37.5987 24.9675 37.7163 24.8159 37.7931 24.643C37.8699 24.4702 37.9036 24.2812 37.8912 24.0925L37.5811 19.3334C37.5669 19.1159 37.614 18.8988 37.7169 18.7067C37.8198 18.5146 37.9745 18.3552 38.1635 18.2465C38.3524 18.1379 38.568 18.0844 38.7858 18.092C39.0036 18.0997 39.2149 18.1682 39.3958 18.2899Z" fill="white"/>
<path d="M39.3958 18.2899L43.3621 20.9391C43.5194 21.0438 43.6997 21.1087 43.8876 21.1282C44.0755 21.1477 44.2653 21.1212 44.4407 21.051L48.8668 19.2862C49.0689 19.2056 49.2896 19.1832 49.5038 19.2214C49.718 19.2597 49.9173 19.3571 50.079 19.5027C50.2407 19.6483 50.3585 19.8363 50.419 20.0453C50.4795 20.2544 50.4803 20.4762 50.4213 20.6856L49.1364 25.2762C49.0851 25.4583 49.0787 25.6501 49.118 25.8352C49.1572 26.0202 49.2408 26.193 49.3616 26.3386L52.4112 30.007C52.5502 30.1744 52.6396 30.3773 52.6693 30.5928C52.6991 30.8083 52.6679 31.0278 52.5794 31.2265C52.4909 31.4253 52.3486 31.5953 52.1685 31.7174C51.9885 31.8395 51.7779 31.9087 51.5605 31.9174L46.7946 32.1075C46.6054 32.1141 46.4206 32.1667 46.2562 32.2606C46.0918 32.3546 45.9527 32.4871 45.8509 32.6468L43.3042 36.6792C43.1879 36.8632 43.0226 37.0111 42.8268 37.1061C42.6309 37.2011 42.4125 37.2395 42.196 37.2169C41.9795 37.1944 41.7736 37.1117 41.6016 36.9783C41.4296 36.845 41.2983 36.6662 41.2226 36.4621L39.571 31.9862C39.5055 31.8085 39.3975 31.6495 39.2566 31.5231C39.1156 31.3967 38.9458 31.3067 38.7621 31.2608L34.1405 30.0852C33.9295 30.0316 33.7377 29.92 33.5869 29.763C33.436 29.606 33.3322 29.4099 33.287 29.1969C33.2418 28.984 33.2571 28.7626 33.3313 28.5579C33.4054 28.3532 33.5353 28.1733 33.7064 28.0387L37.4503 25.0848C37.5987 24.9675 37.7163 24.8159 37.7931 24.643C37.8699 24.4702 37.9036 24.2812 37.8912 24.0925L37.5811 19.3334C37.5669 19.1159 37.614 18.8988 37.7169 18.7067C37.8198 18.5146 37.9745 18.3552 38.1635 18.2465C38.3524 18.1379 38.568 18.0844 38.7858 18.092C39.0036 18.0997 39.2149 18.1682 39.3958 18.2899V18.2899Z" stroke="black" stroke-linecap="round" stroke-linejoin="round"/>
<path d="M23.084 41.7198L26.7457 41.9584C26.8909 41.968 27.0362 41.9421 27.1692 41.8829C27.3021 41.8237 27.4187 41.733 27.5087 41.6187L29.7804 38.7376C29.8843 38.6062 30.0228 38.5065 30.1804 38.4497C30.338 38.3929 30.5083 38.3813 30.6721 38.4162C30.8359 38.4511 30.9867 38.5312 31.1074 38.6473C31.2281 38.7634 31.3139 38.911 31.3551 39.0733L32.2598 42.6285C32.2955 42.7698 32.3651 42.9002 32.4626 43.0085C32.5601 43.1168 32.6825 43.1997 32.8193 43.25L36.2598 44.52C36.417 44.578 36.5549 44.6788 36.6578 44.8111C36.7607 44.9434 36.8245 45.1018 36.842 45.2684C36.8595 45.4351 36.8301 45.6033 36.757 45.7541C36.6839 45.9049 36.5701 46.0322 36.4284 46.1216L33.3275 48.0806C33.2046 48.1581 33.1024 48.2644 33.0298 48.3903C32.9572 48.5162 32.9164 48.6579 32.9109 48.8032L32.7653 52.4703C32.7585 52.6375 32.705 52.7996 32.6109 52.938C32.5168 53.0765 32.3859 53.1859 32.2329 53.2539C32.08 53.3219 31.911 53.3458 31.7452 53.3229C31.5793 53.2999 31.4232 53.2311 31.2945 53.1241L28.4727 50.7783C28.3607 50.6854 28.2278 50.6211 28.0855 50.5911C27.9432 50.561 27.7957 50.566 27.6557 50.6057L24.1234 51.6007C23.9622 51.6463 23.7914 51.6458 23.6304 51.5994C23.4695 51.553 23.3247 51.4624 23.2125 51.338C23.1002 51.2136 23.0251 51.0603 22.9955 50.8953C22.9659 50.7304 22.983 50.5605 23.0449 50.4048L24.4052 46.9953C24.4584 46.86 24.4782 46.7139 24.463 46.5693C24.4477 46.4247 24.3978 46.286 24.3176 46.1648L22.2791 43.1138C22.1863 42.9745 22.1342 42.812 22.1288 42.6447C22.1234 42.4774 22.1649 42.3119 22.2487 42.1669C22.3324 42.0219 22.4549 41.9032 22.6026 41.8242C22.7502 41.7452 22.9169 41.709 23.084 41.7198Z" fill="white"/>
<path d="M23.084 41.7198L26.7457 41.9584C26.8909 41.968 27.0362 41.9421 27.1692 41.8829C27.3021 41.8237 27.4187 41.733 27.5087 41.6187L29.7804 38.7376C29.8843 38.6062 30.0228 38.5065 30.1804 38.4497C30.338 38.3929 30.5083 38.3813 30.6721 38.4162C30.8359 38.4511 30.9867 38.5312 31.1074 38.6473C31.2281 38.7634 31.3139 38.911 31.3551 39.0733L32.2598 42.6285C32.2955 42.7698 32.3651 42.9002 32.4626 43.0085C32.5601 43.1168 32.6825 43.1997 32.8193 43.25L36.2598 44.52C36.417 44.578 36.5549 44.6788 36.6578 44.8111C36.7607 44.9434 36.8245 45.1018 36.842 45.2684C36.8595 45.4351 36.8301 45.6033 36.757 45.7541C36.6839 45.9049 36.5701 46.0322 36.4284 46.1216L33.3275 48.0806C33.2046 48.1581 33.1024 48.2644 33.0298 48.3903C32.9572 48.5162 32.9164 48.6579 32.9109 48.8032L32.7653 52.4703C32.7585 52.6375 32.705 52.7996 32.6109 52.938C32.5168 53.0765 32.3859 53.1859 32.2329 53.2539C32.08 53.3219 31.911 53.3458 31.7452 53.3229C31.5793 53.2999 31.4232 53.2311 31.2945 53.1241L28.4727 50.7783C28.3607 50.6854 28.2278 50.6211 28.0855 50.5911C27.9432 50.561 27.7957 50.566 27.6557 50.6057L24.1234 51.6007C23.9622 51.6463 23.7914 51.6458 23.6304 51.5994C23.4695 51.553 23.3247 51.4624 23.2125 51.338C23.1002 51.2136 23.0251 51.0603 22.9955 50.8953C22.9659 50.7304 22.983 50.5605 23.0449 50.4048L24.4052 46.9953C24.4584 46.86 24.4782 46.7139 24.463 46.5693C24.4477 46.4247 24.3978 46.286 24.3176 46.1648L22.2791 43.1138C22.1863 42.9745 22.1342 42.812 22.1288 42.6447C22.1234 42.4774 22.1649 42.3119 22.2487 42.1669C22.3324 42.0219 22.4549 41.9032 22.6026 41.8242C22.7502 41.7452 22.9169 41.709 23.084 41.7198Z" stroke="black" stroke-linecap="round" stroke-linejoin="round"/>
<path d="M83.1266 92.1583C82.0213 89.2345 80.0519 86.7166 77.4803 84.9395C74.9088 83.1625 71.8571 82.2107 68.7314 82.2107C65.6056 82.2107 62.5539 83.1625 59.9824 84.9395C57.4108 86.7166 55.4414 89.2345 54.3361 92.1583H83.1266Z" fill="white" stroke="black" stroke-linecap="round" stroke-linejoin="round"/>
<path d="M75.7096 71.6453C75.6841 73.479 74.9378 75.229 73.632 76.5168C72.3262 77.8045 70.566 78.5265 68.7321 78.5265C66.8981 78.5265 65.1379 77.8045 63.8321 76.5168C62.5264 75.229 61.78 73.479 61.7545 71.6453V68.1561C61.78 66.3224 62.5264 64.5724 63.8321 63.2846C65.1379 61.9969 66.8981 61.2749 68.7321 61.2749C70.566 61.2749 72.3262 61.9969 73.632 63.2846C74.9378 64.5724 75.6841 66.3224 75.7096 68.1561V71.6453Z" fill="white"/>
<path d="M75.7096 71.6453C75.6841 73.479 74.9378 75.229 73.632 76.5168C72.3262 77.8045 70.566 78.5265 68.7321 78.5265C66.8981 78.5265 65.1379 77.8045 63.8321 76.5168C62.5264 75.229 61.78 73.479 61.7545 71.6453V68.1561C61.78 66.3224 62.5264 64.5724 63.8321 63.2846C65.1379 61.9969 66.8981 61.2749 68.7321 61.2749C70.566 61.2749 72.3262 61.9969 73.632 63.2846C74.9378 64.5724 75.6841 66.3224 75.7096 68.1561V71.6453Z" stroke="black" stroke-linecap="round" stroke-linejoin="round"/>
</g>
</svg>
