<svg width="135" height="124" viewBox="0 0 135 124" fill="none" xmlns="http://www.w3.org/2000/svg">
<mask id="mask0" mask-type="alpha" maskUnits="userSpaceOnUse" x="0" y="0" width="135" height="124">
<rect width="134.819" height="123.197" fill="#C4C4C4"/>
</mask>
<g mask="url(#mask0)">
<path d="M10 72.4585C10 85.867 15.3265 98.7264 24.8078 108.208C34.2891 117.689 47.1485 123.016 60.5571 123.016C73.9657 123.016 86.8251 117.689 96.3064 108.208C105.788 98.7264 111.114 85.867 111.114 72.4585C111.114 59.0499 105.788 46.1905 96.3064 36.7092C86.8251 27.2279 73.9657 21.9014 60.5571 21.9014C47.1485 21.9014 34.2891 27.2279 24.8078 36.7092C15.3265 46.1905 10 59.0499 10 72.4585Z" fill="#E6F0FF"/>
<path d="M24.4982 106.436C24.4982 107.179 28.187 107.892 34.7531 108.417C41.3193 108.942 50.2249 109.237 59.5108 109.237C68.7967 109.237 77.7023 108.942 84.2685 108.417C90.8346 107.892 94.5234 107.179 94.5234 106.436C94.5234 105.693 90.8346 104.981 84.2685 104.456C77.7023 103.93 68.7967 103.635 59.5108 103.635C50.2249 103.635 41.3193 103.93 34.7531 104.456C28.187 104.981 24.4982 105.693 24.4982 106.436Z" fill="#0AE8F0"/>
<path d="M23.097 51.9706C23.097 47.9066 26.3916 44.6121 30.4555 44.6121H96.4174V104.978H23.097V51.9706Z" fill="white"/>
<path d="M22.7842 49.3124C22.7842 46.6031 24.9806 44.4067 27.6899 44.4067H96.0049V104.843H22.7842V49.3124Z" stroke="black" stroke-linejoin="round"/>
<path d="M96.4175 49.3082C96.4175 48.0617 95.9224 46.8662 95.0409 45.9848C94.1595 45.1033 92.964 44.6082 91.7175 44.6082H27.7934C26.5469 44.6082 25.3514 45.1033 24.47 45.9848C23.5885 46.8662 23.0934 48.0617 23.0934 49.3082V55.7866H96.4137L96.4175 49.3082Z" fill="white"/>
<path d="M96.4175 49.3082C96.4175 48.0617 95.9224 46.8662 95.0409 45.9848C94.1595 45.1033 92.964 44.6082 91.7175 44.6082H27.7934C26.5469 44.6082 25.3514 45.1033 24.47 45.9848C23.5885 46.8662 23.0934 48.0617 23.0934 49.3082V55.7866H96.4137L96.4175 49.3082Z" stroke="black" stroke-linejoin="round"/>
<path d="M27.7928 50.1676C27.7928 50.7905 28.0403 51.3879 28.4807 51.8284C28.9212 52.2689 29.5186 52.5163 30.1416 52.5163C30.7645 52.5163 31.3619 52.2689 31.8024 51.8284C32.2428 51.3879 32.4903 50.7905 32.4903 50.1676C32.4903 49.5447 32.2428 48.9473 31.8024 48.5068C31.3619 48.0663 30.7645 47.8188 30.1416 47.8188C29.5186 47.8188 28.9212 48.0663 28.4807 48.5068C28.0403 48.9473 27.7928 49.5447 27.7928 50.1676Z" fill="#D6DAFF" stroke="black" stroke-linejoin="round"/>
<path d="M37.188 50.1676C37.188 50.7905 37.4355 51.3879 37.8759 51.8284C38.3164 52.2689 38.9138 52.5163 39.5368 52.5163C40.1597 52.5163 40.7571 52.2689 41.1976 51.8284C41.638 51.3879 41.8855 50.7905 41.8855 50.1676C41.8855 49.5447 41.638 48.9473 41.1976 48.5068C40.7571 48.0663 40.1597 47.8188 39.5368 47.8188C38.9138 47.8188 38.3164 48.0663 37.8759 48.5068C37.4355 48.9473 37.188 49.5447 37.188 50.1676Z" fill="#D6DAFF" stroke="black" stroke-linejoin="round"/>
<path d="M46.5777 50.1676C46.5777 50.7905 46.8252 51.3879 47.2656 51.8284C47.7061 52.2689 48.3035 52.5163 48.9264 52.5163C49.5494 52.5163 50.1468 52.2689 50.5873 51.8284C51.0277 51.3879 51.2752 50.7905 51.2752 50.1676C51.2752 49.5447 51.0277 48.9473 50.5873 48.5068C50.1468 48.0663 49.5494 47.8188 48.9264 47.8188C48.3035 47.8188 47.7061 48.0663 47.2656 48.5068C46.8252 48.9473 46.5777 49.5447 46.5777 50.1676Z" fill="#D6DAFF" stroke="black" stroke-linejoin="round"/>
<path d="M81.9153 90.5444C81.9197 90.7047 81.8798 90.8632 81.8001 91.0024C81.7204 91.1415 81.6039 91.2561 81.4634 91.3335C81.3229 91.4109 81.1638 91.4482 81.0036 91.4412C80.8433 91.4342 80.6881 91.3832 80.5549 91.2938L71.4089 85.025V88.6263C71.4208 89.5676 71.0589 90.4753 70.4027 91.1504C69.7465 91.8254 68.8493 92.2128 67.908 92.2275H43.4018C42.4616 92.2111 41.5661 91.823 40.9112 91.1482C40.2564 90.4733 39.8954 89.5666 39.9073 88.6263V70.6188C39.8954 69.6774 40.2572 68.7697 40.9135 68.0947C41.5697 67.4196 42.4668 67.0323 43.4082 67.0176H67.9105C68.8517 67.0326 69.7485 67.4201 70.4044 68.0951C71.0604 68.7701 71.422 69.6776 71.4102 70.6188V74.22L80.5561 67.9512C80.6894 67.8619 80.8446 67.8109 81.0048 67.8039C81.1651 67.7969 81.3242 67.8341 81.4647 67.9115C81.6052 67.9889 81.7217 68.1035 81.8014 68.2427C81.8811 68.3819 81.921 68.5404 81.9166 68.7007L81.9153 90.5444Z" fill="#0AE8F0"/>
<path d="M101.907 20.0254C97.5151 20.2363 93.2997 21.8207 89.8558 24.5552C86.4119 27.2896 83.9132 31.036 82.712 35.2663C81.5109 39.4965 81.6679 43.997 83.161 48.1333C84.654 52.2695 87.4078 55.8327 91.0339 58.3204C90.3417 61.3895 88.7495 64.1821 86.4609 66.341C86.3567 66.4411 86.2859 66.5708 86.2578 66.7125C86.2298 66.8542 86.246 67.0011 86.3042 67.1333C86.3624 67.2655 86.4598 67.3767 86.5833 67.4517C86.7067 67.5267 86.8502 67.562 86.9944 67.5528C93.9098 67.1438 97.9747 64.8573 100.699 61.8963C101.437 61.9746 102.179 62.0144 102.921 62.0157C105.724 62.0179 108.499 61.4591 111.083 60.3724C113.667 59.2856 116.007 57.6928 117.965 55.6877C119.924 53.6827 121.462 51.3059 122.488 48.6975C123.514 46.0891 124.007 43.3017 123.939 40.4996C123.872 37.6974 123.244 34.9372 122.093 32.3815C120.942 29.8257 119.291 27.5261 117.238 25.6182C115.184 23.7102 112.77 22.2325 110.137 21.272C107.503 20.3115 104.704 19.8876 101.905 20.0254H101.907Z" fill="white"/>
<path d="M101.907 20.0254C97.5151 20.2363 93.2997 21.8207 89.8558 24.5552C86.4119 27.2896 83.9132 31.036 82.712 35.2663C81.5109 39.4965 81.6679 43.997 83.161 48.1333C84.654 52.2695 87.4078 55.8327 91.0339 58.3204C90.3417 61.3895 88.7495 64.1821 86.4609 66.341C86.3567 66.4411 86.2859 66.5708 86.2578 66.7125C86.2298 66.8542 86.246 67.0011 86.3042 67.1333C86.3624 67.2655 86.4598 67.3767 86.5833 67.4517C86.7067 67.5267 86.8502 67.562 86.9944 67.5528C93.9098 67.1438 97.9747 64.8573 100.699 61.8963C101.437 61.9746 102.179 62.0144 102.921 62.0157C105.724 62.0179 108.499 61.4591 111.083 60.3724C113.667 59.2856 116.007 57.6928 117.965 55.6877C119.924 53.6827 121.462 51.3059 122.488 48.6975C123.514 46.0891 124.007 43.3017 123.939 40.4996C123.872 37.6974 123.244 34.9372 122.093 32.3815C120.942 29.8257 119.291 27.5261 117.238 25.6182C115.184 23.7102 112.77 22.2325 110.137 21.272C107.503 20.3115 104.704 19.8876 101.905 20.0254H101.907Z" stroke="black" stroke-linejoin="round"/>
<path d="M119.926 38.3995L119.463 39.7677C119.444 39.8221 119.44 39.8801 119.449 39.9367C119.458 39.9932 119.481 40.0467 119.516 40.0924L120.38 41.2497C120.419 41.3026 120.443 41.3654 120.449 41.4311C120.454 41.4967 120.441 41.5626 120.411 41.6213C120.381 41.68 120.336 41.7292 120.279 41.7633C120.223 41.7974 120.158 41.815 120.092 41.8142L118.65 41.7961C118.593 41.7953 118.536 41.8085 118.485 41.8345C118.434 41.8604 118.39 41.8984 118.357 41.9451L117.523 43.1248C117.485 43.1786 117.433 43.2206 117.372 43.2462C117.311 43.2717 117.245 43.2798 117.18 43.2695C117.114 43.2591 117.054 43.2308 117.004 43.1877C116.954 43.1446 116.917 43.0884 116.897 43.0255L116.464 41.646C116.447 41.5914 116.417 41.5417 116.376 41.5012C116.336 41.4608 116.286 41.4307 116.231 41.4137L114.852 40.9864C114.789 40.9668 114.733 40.93 114.69 40.8802C114.647 40.8303 114.618 40.7694 114.608 40.7043C114.598 40.6392 114.606 40.5726 114.631 40.5118C114.657 40.4511 114.699 40.3987 114.753 40.3605L115.932 39.5269C115.979 39.4938 116.017 39.4498 116.043 39.3987C116.069 39.3477 116.082 39.291 116.081 39.2337L116.063 37.7917C116.062 37.7258 116.079 37.6608 116.113 37.6043C116.147 37.5478 116.197 37.502 116.255 37.472C116.314 37.442 116.38 37.4291 116.446 37.4348C116.512 37.4404 116.574 37.4643 116.627 37.5039L117.785 38.368C117.831 38.4025 117.884 38.4254 117.941 38.4348C117.997 38.4441 118.055 38.4395 118.11 38.4214L119.478 37.9573C119.54 37.9366 119.606 37.9335 119.67 37.9483C119.733 37.963 119.791 37.9951 119.838 38.0409C119.884 38.0867 119.917 38.1444 119.933 38.2077C119.948 38.271 119.946 38.3374 119.926 38.3995Z" fill="white"/>
<path d="M119.926 38.3995L119.463 39.7677C119.444 39.8221 119.44 39.8801 119.449 39.9367C119.458 39.9932 119.481 40.0467 119.516 40.0924L120.38 41.2497C120.419 41.3026 120.443 41.3654 120.449 41.4311C120.454 41.4967 120.441 41.5626 120.411 41.6213C120.381 41.68 120.336 41.7292 120.279 41.7633C120.223 41.7974 120.158 41.815 120.092 41.8142L118.65 41.7961C118.593 41.7953 118.536 41.8085 118.485 41.8345C118.434 41.8604 118.39 41.8984 118.357 41.9451L117.523 43.1248C117.485 43.1786 117.433 43.2206 117.372 43.2462C117.311 43.2717 117.245 43.2798 117.18 43.2695C117.114 43.2591 117.054 43.2308 117.004 43.1877C116.954 43.1446 116.917 43.0884 116.897 43.0255L116.464 41.646C116.447 41.5914 116.417 41.5417 116.376 41.5012C116.336 41.4608 116.286 41.4307 116.231 41.4137L114.852 40.9864C114.789 40.9668 114.733 40.93 114.69 40.8802C114.647 40.8303 114.618 40.7694 114.608 40.7043C114.598 40.6392 114.606 40.5726 114.631 40.5118C114.657 40.4511 114.699 40.3987 114.753 40.3605L115.932 39.5269C115.979 39.4938 116.017 39.4498 116.043 39.3987C116.069 39.3477 116.082 39.291 116.081 39.2337L116.063 37.7917C116.062 37.7258 116.079 37.6608 116.113 37.6043C116.147 37.5478 116.197 37.502 116.255 37.472C116.314 37.442 116.38 37.4291 116.446 37.4348C116.512 37.4404 116.574 37.4643 116.627 37.5039L117.785 38.368C117.831 38.4025 117.884 38.4254 117.941 38.4348C117.997 38.4441 118.055 38.4395 118.11 38.4214L119.478 37.9573C119.54 37.9366 119.606 37.9335 119.67 37.9483C119.733 37.963 119.791 37.9951 119.838 38.0409C119.884 38.0867 119.917 38.1444 119.933 38.2077C119.948 38.271 119.946 38.3374 119.926 38.3995Z" stroke="black" stroke-linecap="round" stroke-linejoin="round"/>
<path d="M111.689 26.8063L111.226 28.1746C111.208 28.229 111.203 28.287 111.212 28.3435C111.222 28.4001 111.245 28.4536 111.279 28.4993L112.143 29.6566C112.183 29.7095 112.206 29.7723 112.212 29.8379C112.217 29.9036 112.204 29.9695 112.175 30.0282C112.145 30.0869 112.099 30.136 112.042 30.1701C111.986 30.2042 111.921 30.2219 111.855 30.2211L110.413 30.2029C110.356 30.2022 110.3 30.2154 110.249 30.2413C110.197 30.2673 110.153 30.3052 110.12 30.3519L109.287 31.5317C109.248 31.5854 109.196 31.6275 109.135 31.653C109.075 31.6786 109.008 31.6866 108.943 31.6763C108.878 31.666 108.817 31.6377 108.767 31.5946C108.717 31.5514 108.68 31.4953 108.661 31.4323L108.227 30.0529C108.21 29.9982 108.18 29.9485 108.14 29.9081C108.099 29.8676 108.049 29.8376 107.995 29.8205L106.615 29.3933C106.552 29.3737 106.496 29.3369 106.453 29.287C106.41 29.2372 106.382 29.1763 106.371 29.1112C106.361 29.0461 106.369 28.9794 106.395 28.9187C106.42 28.8579 106.462 28.8055 106.516 28.7674L107.695 27.9337C107.742 27.9006 107.78 27.8567 107.806 27.8056C107.832 27.7545 107.845 27.6979 107.845 27.6405L107.826 26.1986C107.825 26.1326 107.843 26.0677 107.877 26.0112C107.911 25.9547 107.96 25.9088 108.019 25.8789C108.077 25.8489 108.143 25.836 108.209 25.8416C108.275 25.8473 108.338 25.8712 108.39 25.9107L109.548 26.7748C109.594 26.8094 109.647 26.8323 109.704 26.8416C109.761 26.8509 109.819 26.8463 109.873 26.8282L111.241 26.3641C111.303 26.3435 111.369 26.3404 111.433 26.3551C111.496 26.3699 111.555 26.4019 111.601 26.4477C111.647 26.4935 111.68 26.5513 111.696 26.6146C111.711 26.6779 111.709 26.7442 111.689 26.8063Z" fill="white"/>
<path d="M111.689 26.8063L111.226 28.1746C111.208 28.229 111.203 28.287 111.212 28.3435C111.222 28.4001 111.245 28.4536 111.279 28.4993L112.143 29.6566C112.183 29.7095 112.206 29.7723 112.212 29.8379C112.217 29.9036 112.204 29.9695 112.175 30.0282C112.145 30.0869 112.099 30.136 112.042 30.1701C111.986 30.2042 111.921 30.2219 111.855 30.2211L110.413 30.2029C110.356 30.2022 110.3 30.2154 110.249 30.2413C110.197 30.2673 110.153 30.3052 110.12 30.3519L109.287 31.5317C109.248 31.5854 109.196 31.6275 109.135 31.653C109.075 31.6786 109.008 31.6866 108.943 31.6763C108.878 31.666 108.817 31.6377 108.767 31.5946C108.717 31.5514 108.68 31.4953 108.661 31.4323L108.227 30.0529C108.21 29.9982 108.18 29.9485 108.14 29.9081C108.099 29.8676 108.049 29.8376 107.995 29.8205L106.615 29.3933C106.552 29.3737 106.496 29.3369 106.453 29.287C106.41 29.2372 106.382 29.1763 106.371 29.1112C106.361 29.0461 106.369 28.9794 106.395 28.9187C106.42 28.8579 106.462 28.8055 106.516 28.7674L107.695 27.9337C107.742 27.9006 107.78 27.8567 107.806 27.8056C107.832 27.7545 107.845 27.6979 107.845 27.6405L107.826 26.1986C107.825 26.1326 107.843 26.0677 107.877 26.0112C107.911 25.9547 107.96 25.9088 108.019 25.8789C108.077 25.8489 108.143 25.836 108.209 25.8416C108.275 25.8473 108.338 25.8712 108.39 25.9107L109.548 26.7748C109.594 26.8094 109.647 26.8323 109.704 26.8416C109.761 26.8509 109.819 26.8463 109.873 26.8282L111.241 26.3641C111.303 26.3435 111.369 26.3404 111.433 26.3551C111.496 26.3699 111.555 26.4019 111.601 26.4477C111.647 26.4935 111.68 26.5513 111.696 26.6146C111.711 26.6779 111.709 26.7442 111.689 26.8063Z" stroke="black" stroke-linecap="round" stroke-linejoin="round"/>
<path d="M95.6292 28.2664L95.1656 29.6347C95.1475 29.6891 95.1429 29.7471 95.1522 29.8036C95.1615 29.8602 95.1844 29.9136 95.219 29.9594L96.0831 31.1167C96.1224 31.1695 96.1462 31.2324 96.1517 31.298C96.1572 31.3637 96.1443 31.4296 96.1144 31.4883C96.0844 31.547 96.0387 31.5961 95.9823 31.6302C95.9259 31.6643 95.8611 31.682 95.7952 31.6812L94.3533 31.663C94.296 31.6623 94.2394 31.6755 94.1883 31.7014C94.1373 31.7274 94.0933 31.7653 94.0601 31.812L93.2264 32.9917C93.1883 33.0455 93.1359 33.0875 93.0752 33.1131C93.0144 33.1387 92.9477 33.1467 92.8826 33.1364C92.8175 33.1261 92.7566 33.0977 92.7068 33.0546C92.6569 33.0115 92.6201 32.9553 92.6005 32.8924L92.1669 31.5129C92.1498 31.4583 92.1198 31.4086 92.0793 31.3682C92.0389 31.3277 91.9892 31.2977 91.9346 31.2806L90.5551 30.8534C90.4922 30.8338 90.436 30.797 90.3929 30.7471C90.3498 30.6973 90.3214 30.6364 90.3111 30.5713C90.3008 30.5062 90.3088 30.4395 90.3344 30.3787C90.36 30.318 90.402 30.2656 90.4558 30.2275L91.6349 29.3938C91.6818 29.3607 91.7199 29.3168 91.7459 29.2657C91.772 29.2146 91.7852 29.1579 91.7845 29.1006L91.7658 27.6587C91.7648 27.5927 91.7823 27.5278 91.8164 27.4713C91.8504 27.4148 91.8996 27.3689 91.9584 27.3389C92.0172 27.309 92.0832 27.2961 92.1489 27.3017C92.2146 27.3073 92.2775 27.3313 92.3303 27.3708L93.4881 28.2349C93.5339 28.2695 93.5873 28.2924 93.6439 28.3017C93.7005 28.311 93.7584 28.3064 93.8128 28.2883L95.1811 27.8242C95.2429 27.8036 95.3093 27.8005 95.3728 27.8152C95.4363 27.83 95.4944 27.862 95.5408 27.9078C95.5872 27.9536 95.62 28.0113 95.6356 28.0746C95.6512 28.1379 95.649 28.2043 95.6292 28.2664Z" fill="white"/>
<path d="M95.6292 28.2664L95.1656 29.6347C95.1475 29.6891 95.1429 29.7471 95.1522 29.8036C95.1615 29.8602 95.1844 29.9136 95.219 29.9594L96.0831 31.1167C96.1224 31.1695 96.1462 31.2324 96.1517 31.298C96.1572 31.3637 96.1443 31.4296 96.1144 31.4883C96.0844 31.547 96.0387 31.5961 95.9823 31.6302C95.9259 31.6643 95.8611 31.682 95.7952 31.6812L94.3533 31.663C94.296 31.6623 94.2394 31.6755 94.1883 31.7014C94.1373 31.7274 94.0933 31.7653 94.0601 31.812L93.2264 32.9917C93.1883 33.0455 93.1359 33.0875 93.0752 33.1131C93.0144 33.1387 92.9477 33.1467 92.8826 33.1364C92.8175 33.1261 92.7566 33.0977 92.7068 33.0546C92.6569 33.0115 92.6201 32.9553 92.6005 32.8924L92.1669 31.5129C92.1498 31.4583 92.1198 31.4086 92.0793 31.3682C92.0389 31.3277 91.9892 31.2977 91.9346 31.2806L90.5551 30.8534C90.4922 30.8338 90.436 30.797 90.3929 30.7471C90.3498 30.6973 90.3214 30.6364 90.3111 30.5713C90.3008 30.5062 90.3088 30.4395 90.3344 30.3787C90.36 30.318 90.402 30.2656 90.4558 30.2275L91.6349 29.3938C91.6818 29.3607 91.7199 29.3168 91.7459 29.2657C91.772 29.2146 91.7852 29.1579 91.7845 29.1006L91.7658 27.6587C91.7648 27.5927 91.7823 27.5278 91.8164 27.4713C91.8504 27.4148 91.8996 27.3689 91.9584 27.3389C92.0172 27.309 92.0832 27.2961 92.1489 27.3017C92.2146 27.3073 92.2775 27.3313 92.3303 27.3708L93.4881 28.2349C93.5339 28.2695 93.5873 28.2924 93.6439 28.3017C93.7005 28.311 93.7584 28.3064 93.8128 28.2883L95.1811 27.8242C95.2429 27.8036 95.3093 27.8005 95.3728 27.8152C95.4363 27.83 95.4944 27.862 95.5408 27.9078C95.5872 27.9536 95.62 28.0113 95.6356 28.0746C95.6512 28.1379 95.649 28.2043 95.6292 28.2664Z" stroke="black" stroke-linecap="round" stroke-linejoin="round"/>
<path d="M104.804 34.9991C104.942 34.8267 105.131 34.7017 105.344 34.6414C105.557 34.5812 105.783 34.5887 105.991 34.663C106.2 34.7372 106.38 34.8745 106.506 35.0557C106.633 35.237 106.7 35.4532 106.699 35.6743L106.63 42.2772C106.628 42.4986 106.695 42.7151 106.821 42.8968C106.948 43.0784 107.128 43.2161 107.336 43.2906L113.078 45.3443C113.285 45.4185 113.464 45.5551 113.59 45.7352C113.717 45.9154 113.784 46.1304 113.784 46.3505C113.783 46.5706 113.714 46.7851 113.586 46.9645C113.459 47.1438 113.279 47.2792 113.071 47.3519L106.907 49.5132C106.709 49.583 106.535 49.7101 106.408 49.8784C106.282 50.0467 106.208 50.2488 106.196 50.4591L105.833 56.9596C105.819 57.1864 105.734 57.4031 105.589 57.5779C105.444 57.7527 105.247 57.8765 105.026 57.9313C104.806 57.986 104.573 57.9687 104.363 57.882C104.153 57.7954 103.977 57.6438 103.859 57.4494L100.535 51.9207C100.408 51.7101 100.212 51.5497 99.9809 51.467C99.7495 51.3842 99.4966 51.3841 99.2651 51.4667L93.1879 53.6312C92.9734 53.7076 92.74 53.7132 92.522 53.6472C92.3041 53.5812 92.113 53.447 91.9769 53.2644C91.8408 53.0819 91.7668 52.8604 91.7658 52.6327C91.7649 52.405 91.8369 52.1829 91.9714 51.9992L95.8146 46.7426C95.9393 46.5728 96.0108 46.3699 96.02 46.1594C96.0293 45.949 95.9759 45.7405 95.8665 45.5604L92.4716 39.9819C92.3573 39.7938 92.3041 39.575 92.3193 39.3555C92.3345 39.1359 92.4173 38.9265 92.5563 38.756C92.6954 38.5854 92.8838 38.4622 93.0958 38.4031C93.3078 38.344 93.5328 38.3521 93.74 38.4262L99.4807 40.48C99.6891 40.5545 99.9157 40.5623 100.129 40.5021C100.342 40.442 100.531 40.317 100.67 40.1444L104.804 34.9991Z" fill="#0AE8F0"/>
</g>
</svg>
